<svg width="269" height="38" viewBox="0 0 269 38" fill="none" xmlns="http://www.w3.org/2000/svg">
<path d="M181.536 0.829006C184.318 2.43205 185.245 6.00808 183.576 8.78258L170.349 31.1636C168.741 33.9381 165.156 34.8629 162.375 33.1982C159.593 31.5952 158.666 28.0191 160.335 25.2446L173.563 2.86364C175.17 0.0891378 178.755 -0.77404 181.536 0.829006Z" fill="#1DBF73"/>
<path d="M150.628 34.4313C154.337 38.9938 162.249 39.1171 170.037 35.1711C163.856 37.8223 157.922 37.514 155.079 33.938C151.184 29.0672 154.584 19.8805 162.62 13.4067C170.717 6.93284 180.421 5.63807 184.315 10.5089C186.108 12.7285 186.355 15.9346 185.304 19.264C187.159 14.6398 187.097 10.1389 184.624 7.11781C179.989 1.32218 168.553 2.74026 159.158 10.2006C149.886 17.8459 145.992 28.6356 150.628 34.4313Z" fill="url(#paint0_linear_1323_7657)"/>
<path d="M184.502 21.6685C184.502 21.6685 187.778 17.8458 188.643 14.1465C188.643 14.1465 187.716 15.5646 186.356 16.1811C186.356 16.2428 184.935 20.9286 184.502 21.6685Z" fill="url(#paint1_linear_1323_7657)"/>
<path d="M150.628 34.4313C154.337 38.9938 162.249 39.1171 170.037 35.1711C163.856 37.8223 157.922 37.514 155.079 33.938C151.184 29.0672 154.584 19.8805 162.62 13.4067C170.717 6.93284 180.421 5.63807 184.315 10.5089C186.108 12.7285 186.355 15.9346 185.304 19.264C187.159 14.6398 187.097 10.1389 184.624 7.11781C179.989 1.32218 168.553 2.74026 159.158 10.2006C149.886 17.8459 145.992 28.6356 150.628 34.4313Z" fill="url(#paint2_linear_1323_7657)"/>
<path d="M184.502 21.6685C184.502 21.6685 187.778 17.8458 188.643 14.1465C188.643 14.1465 187.716 15.5646 186.356 16.1811C186.356 16.2428 184.935 20.9286 184.502 21.6685Z" fill="url(#paint3_linear_1323_7657)"/>
<path d="M150.939 15.4414C152.731 12.9752 154.957 10.694 157.491 8.65933C158.171 8.10443 158.851 7.61118 159.592 7.11794L157.12 2.8637C155.513 0.0891931 151.928 -0.835641 149.146 0.829061C146.365 2.43211 145.438 6.00813 147.107 8.78264L150.939 15.4414Z" fill="url(#paint4_linear_1323_7657)"/>
<path d="M160.273 31.1635C160.335 31.1635 160.335 31.1635 160.273 31.1635C160.768 32.0266 161.448 32.7049 162.313 33.2598C165.095 34.8628 168.68 33.9996 170.287 31.2251L170.472 30.9785L174.737 23.7031C174.243 24.443 171.832 27.5258 169.545 24.1347L165.28 16.921L164.476 15.5029C164.353 15.6262 164.167 15.7496 164.044 15.8112C160.52 18.5857 157.986 22.1001 156.75 25.3062L160.273 31.1635Z" fill="url(#paint5_linear_1323_7657)"/>
<path d="M124.828 3.29077L130.636 4.03534V13.1687H136.842V15.4024H130.636V33.4706V34.2152H124.828V15.4024H121.154V13.1687H124.828V3.29077Z" fill="#012638"/>
<path d="M97.3885 25.7271V34.2152H91.5801V13.1687L96.4949 13.814C98.8282 12.8213 101.807 12.3745 104.835 12.3745C110.644 12.3745 116.502 14.2111 117.395 17.785C117.842 19.4727 118.041 21.5079 118.041 23.4934V34.2152H112.232V23.4934C112.232 21.8554 112.133 20.2173 111.885 18.8771C111.388 15.9981 108.112 14.4593 104.835 14.4593C102.055 14.4593 99.3247 15.0053 97.3885 16.0477V25.7271Z" fill="#012638"/>
<path d="M66.5085 24.9326C66.5581 26.0247 66.6078 27.1167 66.8064 28.1095C67.3028 30.9885 70.629 32.4776 73.9056 32.4776C77.9764 32.4776 82.0473 31.3359 83.487 28.9533L85.9196 30.3432C84.1324 33.1725 79.1183 34.5624 74.1538 34.5624C68.1964 34.5624 62.239 32.8251 61.2958 29.1519C60.849 27.4642 60.6504 25.4787 60.6504 23.4435C60.6504 21.458 60.849 19.4228 61.2958 17.6855C62.1894 14.0619 67.9978 12.2253 73.8559 12.2253C79.6644 12.2253 85.6218 14.0619 86.5154 17.7848C86.8629 19.2739 87.1111 20.9616 87.1111 22.6989V24.9326H66.5085ZM81.3027 22.6989C81.3027 21.3587 81.1537 20.0185 80.9551 18.8272C80.409 15.8489 77.1325 14.3598 73.8559 14.3598C70.629 14.3598 67.3028 15.8489 66.8064 18.7775C66.6078 19.9689 66.5085 21.3091 66.4588 22.6989H81.3027Z" fill="#012638"/>
<path d="M49.9844 3.29077L55.7928 4.03534C55.7928 13.8636 55.7928 23.6423 55.7928 33.4706V34.2152H49.9844C49.9844 23.8905 49.9844 13.6155 49.9844 3.29077Z" fill="#012638"/>
<path d="M45.5134 22.9968V34.2149L39.705 33.4704C37.5703 34.2149 34.9391 34.5624 32.3079 34.5624C26.4498 34.5624 20.6414 32.7258 19.6981 29.1519C19.2513 27.4642 19.0527 25.4787 19.0527 23.4435C19.0527 21.458 19.2513 19.4228 19.6981 17.6855C20.5917 14.0619 26.4002 12.2253 32.2583 12.2253C38.1164 12.2253 43.9745 14.0619 44.9177 17.7848C45.3149 19.3236 45.5134 21.1602 45.5134 22.9968ZM39.705 30.8892V23.3442C39.705 21.7558 39.6057 20.1674 39.3575 18.8272C38.8114 15.8489 35.5845 14.3598 32.2583 14.3598C29.0313 14.3598 25.7051 15.8489 25.2087 18.7775C24.9605 20.1674 24.8612 21.8055 24.8612 23.4435C24.8612 25.0816 24.9605 26.7196 25.2087 28.1095C25.7051 30.9885 29.0314 32.4776 32.3079 32.4776C35.0384 32.4776 37.7688 31.9812 39.705 30.8892Z" fill="#012638"/>
<path d="M7.24815 23.543V23.4934V5.37556H0V3.29077H7.24815H20.3544V5.37556H13.1062V23.4934V23.543V34.2152H7.24815V23.543Z" fill="#012638"/>
<path d="M248.397 24.9329C248.447 26.0249 248.496 27.117 248.695 28.1097C249.191 30.9887 252.518 32.4778 255.794 32.4778C259.865 32.4778 263.936 31.3362 265.376 28.9536L267.808 30.3434C266.021 33.1728 261.007 34.5626 256.042 34.5626C250.085 34.5626 244.128 32.8253 243.184 29.1521C242.738 27.4644 242.539 25.4789 242.539 23.4438C242.539 21.4582 242.738 19.4231 243.184 17.6858C244.078 14.0622 249.886 12.2256 255.745 12.2256C261.553 12.2256 267.51 14.0622 268.404 17.785C268.752 19.2742 269 20.9619 269 22.6992V24.9329H248.397ZM263.191 22.6992C263.191 21.359 263.042 20.0187 262.844 18.8274C262.298 15.8492 259.021 14.36 255.745 14.36C252.518 14.36 249.191 15.8492 248.695 18.7778C248.496 19.9691 248.397 21.3093 248.348 22.6992H263.191Z" fill="#012638"/>
<path d="M230.652 25.7271V34.2152H224.844V23.4438V12.8212L230.205 13.5162C232.439 12.6723 235.17 12.2256 237.95 12.2256C238.695 12.2256 239.439 12.2752 240.184 12.3249V14.4097C239.489 14.36 238.794 14.3104 238.099 14.3104C234.822 14.3104 231.496 15.7995 231 18.7778C230.801 20.118 230.652 21.7064 230.652 23.2948V25.7271Z" fill="#012638"/>
<path d="M220.373 22.997V34.2152L214.564 33.4706C212.43 34.2152 209.798 34.5626 207.167 34.5626C201.309 34.5626 195.501 32.726 194.557 29.1521C194.111 27.4644 193.912 25.4789 193.912 23.4438C193.912 21.4582 194.111 19.4231 194.557 17.6858C195.451 14.0622 201.26 12.2256 207.118 12.2256C212.976 12.2256 218.834 14.0622 219.777 17.785C220.174 19.3238 220.373 21.1604 220.373 22.997ZM214.564 30.8894V23.3445C214.564 21.7561 214.465 20.1677 214.217 18.8274C213.671 15.8492 210.444 14.36 207.118 14.36C203.891 14.36 200.565 15.8492 200.068 18.7778C199.82 20.1677 199.721 21.8057 199.721 23.4438C199.721 25.0818 199.82 26.7199 200.068 28.1097C200.565 30.9887 203.891 32.4778 207.167 32.4778C209.898 32.4778 212.628 31.9815 214.564 30.8894Z" fill="#012638"/>
<defs>
<linearGradient id="paint0_linear_1323_7657" x1="186.699" y1="20.7995" x2="148.684" y2="20.7995" gradientUnits="userSpaceOnUse">
<stop stop-color="#4C8262"/>
<stop offset="0.0143849" stop-color="#4F8665"/>
<stop offset="0.1383" stop-color="#64A37E"/>
<stop offset="0.2615" stop-color="#73B78F"/>
<stop offset="0.3829" stop-color="#7CC499"/>
<stop offset="0.5" stop-color="#7FC89D"/>
<stop offset="0.6171" stop-color="#7CC499"/>
<stop offset="0.7385" stop-color="#73B78F"/>
<stop offset="0.8617" stop-color="#64A37E"/>
<stop offset="0.9856" stop-color="#4F8665"/>
<stop offset="1" stop-color="#4C8262"/>
</linearGradient>
<linearGradient id="paint1_linear_1323_7657" x1="186.566" y1="14.1075" x2="186.314" y2="21.7468" gradientUnits="userSpaceOnUse">
<stop stop-color="#4C8262"/>
<stop offset="0.0143849" stop-color="#4F8665"/>
<stop offset="0.1383" stop-color="#64A37E"/>
<stop offset="0.2615" stop-color="#73B78F"/>
<stop offset="0.3829" stop-color="#7CC499"/>
<stop offset="0.5" stop-color="#7FC89D"/>
<stop offset="0.6171" stop-color="#7CC499"/>
<stop offset="0.7385" stop-color="#73B78F"/>
<stop offset="0.8617" stop-color="#64A37E"/>
<stop offset="0.9856" stop-color="#4F8665"/>
<stop offset="1" stop-color="#4C8262"/>
</linearGradient>
<linearGradient id="paint2_linear_1323_7657" x1="148.684" y1="20.7995" x2="188.648" y2="20.7995" gradientUnits="userSpaceOnUse">
<stop stop-color="#1DBF73"/>
<stop offset="1" stop-color="#19A152"/>
</linearGradient>
<linearGradient id="paint3_linear_1323_7657" x1="148.685" y1="20.7994" x2="188.649" y2="20.7994" gradientUnits="userSpaceOnUse">
<stop stop-color="#1DBF73"/>
<stop offset="1" stop-color="#19A152"/>
</linearGradient>
<linearGradient id="paint4_linear_1323_7657" x1="157.439" y1="17.7417" x2="143.806" y2="-14.3795" gradientUnits="userSpaceOnUse">
<stop stop-color="#1DBF73"/>
<stop offset="1" stop-color="#19A152"/>
</linearGradient>
<linearGradient id="paint5_linear_1323_7657" x1="161.377" y1="24.4684" x2="171.165" y2="34.2805" gradientUnits="userSpaceOnUse">
<stop stop-color="#1DBF73"/>
<stop offset="1" stop-color="#19A152"/>
</linearGradient>
</defs>
</svg>
