<svg xmlns="http://www.w3.org/2000/svg" xmlns:xlink="http://www.w3.org/1999/xlink" id="Layer_1" x="0px" y="0px" viewBox="0 0 370.4 83.6" style="enable-background:new 0 0 370.4 83.6;" xml:space="preserve"><style type="text/css">	.st0{fill:#0E4C27;}	.st1{fill:url(#SVGID_1_);}	.st2{fill:url(#SVGID_2_);}	.st3{fill:url(#SVGID_3_);}	.st4{fill:url(#SVGID_4_);}	.st5{fill:url(#SVGID_5_);}	.st6{fill:url(#SVGID_6_);}	.st7{fill:#0C3A1E;}	.st8{fill:url(#SVGID_7_);}	.st9{fill:url(#SVGID_8_);}	.st10{fill:url(#SVGID_9_);}	.st11{fill:url(#SVGID_10_);}	.st12{fill:url(#SVGID_11_);}	.st13{fill:url(#SVGID_12_);}	.st14{display:none;}</style><g>	<path class="st0" d="M16,49.9V20.5H4.3v-3.4H16h21.3v3.4H25.6v29.4V50v17.3H16V49.9L16,49.9z"></path>	<path class="st0" d="M78.2,67.4l-9.4-1.2c-3.5,1.2-7.7,1.8-12,1.8c-9.5,0-18.9-3-20.5-8.8c-0.7-2.7-1-6-1-9.3c0-3.2,0.3-6.5,1-9.3  c1.5-5.9,10.9-8.9,20.4-8.9s19,3,20.6,9c0.6,2.5,1,5.5,1,8.5V67.4z M68.8,49.7c0-2.6-0.2-5.2-0.6-7.3c-0.9-4.8-6.1-7.3-11.5-7.3  c-5.2,0-10.6,2.4-11.4,7.2c-0.4,2.3-0.6,4.9-0.6,7.6c0,2.7,0.2,5.3,0.6,7.6c0.8,4.7,6.2,7.1,11.5,7.1c4.4,0,8.9-0.8,12-2.6V49.7z"></path>	<path class="st0" d="M85.4,64.8l3.1-2.1c0.2,0.1,0.8,0.3,1,0.5c4,2,12.1,3.3,15.2-0.8c1.1-1.5,1.9-3.9,0.6-5.5  c-3-3.3-13.5-3.5-17.9-8.9c-4.1-5-1.7-11.8,4.2-14.1c6.2-2.5,16.1-2,21.9,1.1l-2.8,2.4c-0.5-0.2-1.5-0.6-2.2-0.8  c-4.1-1.4-10-1.7-12.7,1.4c-1.6,1.8-2.3,4.5-0.2,6.2c3.7,3.2,14.6,3.4,18.1,9.2c2.5,4,1.2,9.8-2.8,12.3  C104.6,69.6,91.6,69.2,85.4,64.8z"></path>	<path class="st0" d="M131.8,18.4V53l14.3,14.3h13.4l-18.6-18.6l15.3-15.4h-4.8L131.8,53v13.1v1.2h-9.4c0-16.8,0-33.4,0-50.2  L131.8,18.4z"></path></g><g>	<path class="st0" d="M283.4,67.4l-9.4-1.2c-3.5,1.2-7.7,1.8-12,1.8c-9.5,0-18.9-3-20.5-8.8c-0.7-2.7-1-6-1-9.3c0-3.2,0.3-6.5,1-9.3  c1.5-5.9,10.9-8.9,20.4-8.9c9.5,0,19,3,20.6,9c0.6,2.5,1,5.5,1,8.5V67.4z M273.9,49.7c0-2.6-0.2-5.2-0.6-7.3  c-0.9-4.8-6.1-7.3-11.5-7.3c-5.2,0-10.6,2.4-11.4,7.2c-0.4,2.3-0.6,4.9-0.6,7.6c0,2.7,0.2,5.3,0.6,7.6c0.8,4.7,6.2,7.1,11.5,7.1  c4.4,0,8.9-0.8,12-2.6V49.7z"></path>	<path class="st0" d="M300.1,67.4h-9.4V49.9V32.6l8.7,1.1c3.6-1.4,8.1-2.1,12.6-2.1c1.2,0,2.4,0.1,3.6,0.2v3.4  c-1.1-0.1-2.3-0.2-3.4-0.2c-5.3,0-10.7,2.4-11.5,7.3c-0.3,2.2-0.6,4.8-0.6,7.3v3.9V67.4z"></path>	<path class="st0" d="M329.4,57.4c0.8,4.7,6.2,7.1,11.5,7.1c6.6,0,13.2-1.9,15.6-5.7l3.9,2.3c-2.9,4.6-11,6.9-19.1,6.9  c-9.7,0-19.3-2.8-20.9-8.8c-0.7-2.7-1-6-1-9.3c0-3.2,0.3-6.5,1-9.3c1.5-5.9,10.9-8.9,20.4-8.9c9.4,0,19.1,3,20.6,9  c0.6,2.4,1,5.2,1,8v3.6h-33.4C329,54.1,329.1,55.8,329.4,57.4z M352.4,42.4c-0.9-4.8-6.2-7.3-11.5-7.3c-5.2,0-10.6,2.4-11.4,7.2  c-0.3,1.9-0.5,4.1-0.6,6.4h24.1C352.9,46.5,352.7,44.3,352.4,42.4z"></path></g><g>	<path class="st0" d="M223.1,14.5c4.5,2.6,6,8.4,3.3,12.9L205,63.7c-2.6,4.5-8.4,6-12.9,3.3l0,0c-4.5-2.6-6-8.4-3.3-12.9l21.4-36.3  C212.8,13.3,218.6,11.9,223.1,14.5L223.1,14.5z"></path>	<g>		<g>							<linearGradient id="SVGID_1_" gradientUnits="userSpaceOnUse" x1="-790.5969" y1="-148.5099" x2="-729.0955" y2="-148.5099" gradientTransform="matrix(-1 0 0 -1 -559.1407 -101.6194)">				<stop offset="0" style="stop-color:#4C8262"></stop>				<stop offset="1.438489e-02" style="stop-color:#4F8665"></stop>				<stop offset="0.1383" style="stop-color:#64A37E"></stop>				<stop offset="0.2615" style="stop-color:#73B78F"></stop>				<stop offset="0.3829" style="stop-color:#7CC499"></stop>				<stop offset="0.5" style="stop-color:#7FC89D"></stop>				<stop offset="0.6171" style="stop-color:#7CC499"></stop>				<stop offset="0.7385" style="stop-color:#73B78F"></stop>				<stop offset="0.8617" style="stop-color:#64A37E"></stop>				<stop offset="0.9856" style="stop-color:#4F8665"></stop>				<stop offset="1" style="stop-color:#4C8262"></stop>			</linearGradient>			<path class="st1" d="M173.1,69c6,7.4,18.8,7.6,31.4,1.2c-10,4.3-19.6,3.8-24.2-2c-6.3-7.9-0.8-22.8,12.2-33.3    c13.1-10.5,28.8-12.6,35.1-4.7c2.9,3.6,3.3,8.8,1.6,14.2c3-7.5,2.9-14.8-1.1-19.7c-7.5-9.4-26-7.1-41.2,5    C171.9,42.1,165.6,59.6,173.1,69z"></path>							<linearGradient id="SVGID_2_" gradientUnits="userSpaceOnUse" x1="-304.1918" y1="-516.9467" x2="-316.4945" y2="-518.3083" gradientTransform="matrix(0.1276 -0.9918 -1.1532 -0.1484 -326.0881 -342.3756)">				<stop offset="0" style="stop-color:#4C8262"></stop>				<stop offset="1.438489e-02" style="stop-color:#4F8665"></stop>				<stop offset="0.1383" style="stop-color:#64A37E"></stop>				<stop offset="0.2615" style="stop-color:#73B78F"></stop>				<stop offset="0.3829" style="stop-color:#7CC499"></stop>				<stop offset="0.5" style="stop-color:#7FC89D"></stop>				<stop offset="0.6171" style="stop-color:#7CC499"></stop>				<stop offset="0.7385" style="stop-color:#73B78F"></stop>				<stop offset="0.8617" style="stop-color:#64A37E"></stop>				<stop offset="0.9856" style="stop-color:#4F8665"></stop>				<stop offset="1" style="stop-color:#4C8262"></stop>			</linearGradient>			<path class="st2" d="M227.9,48.3c0,0,5.3-6.2,6.7-12.2c0,0-1.5,2.3-3.7,3.3C230.9,39.5,228.6,47.1,227.9,48.3z"></path>		</g>		<g>							<linearGradient id="SVGID_3_" gradientUnits="userSpaceOnUse" x1="-213.4338" y1="46.8905" x2="-148.779" y2="46.8905" gradientTransform="matrix(1 0 0 1 383.3885 0)">				<stop offset="0" style="stop-color:#0F4C27"></stop>				<stop offset="1" style="stop-color:#19A152"></stop>			</linearGradient>			<path class="st3" d="M173.1,69c6,7.4,18.8,7.6,31.4,1.2c-10,4.3-19.6,3.8-24.2-2c-6.3-7.9-0.8-22.8,12.2-33.3    c13.1-10.5,28.8-12.6,35.1-4.7c2.9,3.6,3.3,8.8,1.6,14.2c3-7.5,2.9-14.8-1.1-19.7c-7.5-9.4-26-7.1-41.2,5    C171.9,42.1,165.6,59.6,173.1,69z"></path>							<linearGradient id="SVGID_4_" gradientUnits="userSpaceOnUse" x1="-213.4338" y1="46.8905" x2="-148.779" y2="46.8905" gradientTransform="matrix(1 0 0 1 383.3885 0)">				<stop offset="0" style="stop-color:#0F4C27"></stop>				<stop offset="1" style="stop-color:#19A152"></stop>			</linearGradient>			<path class="st4" d="M227.9,48.3c0,0,5.3-6.2,6.7-12.2c0,0-1.5,2.3-3.7,3.3C230.9,39.5,228.6,47.1,227.9,48.3z"></path>		</g>	</g>			<linearGradient id="SVGID_5_" gradientUnits="userSpaceOnUse" x1="-743.256" y1="-143.5502" x2="-721.1065" y2="-91.4926" gradientTransform="matrix(-1 0 0 -1 -559.1407 -101.6194)">		<stop offset="0" style="stop-color:#0F4C27"></stop>		<stop offset="1" style="stop-color:#19A152"></stop>	</linearGradient>	<path class="st5" d="M173.6,38.2c2.9-4,6.5-7.7,10.6-11c1.1-0.9,2.2-1.7,3.4-2.5l-4-6.9c-2.6-4.5-8.4-6-12.9-3.3  c-4.5,2.6-6,8.4-3.3,12.9L173.6,38.2z"></path>			<linearGradient id="SVGID_6_" gradientUnits="userSpaceOnUse" x1="-771.3187" y1="-154.867" x2="-732.4454" y2="-154.867" gradientTransform="matrix(-1 0 0 -1 -559.1407 -101.6194)">		<stop offset="0" style="stop-color:#0F4C27"></stop>		<stop offset="1" style="stop-color:#19A152"></stop>	</linearGradient>	<path class="st6" d="M188.7,63.7C188.8,63.7,188.8,63.7,188.7,63.7c0.8,1.4,1.9,2.5,3.3,3.4c4.5,2.6,10.3,1.2,12.9-3.3l0.3-0.4  c0,0,0,0,0,0l6.9-11.8c-0.8,1.2-4.7,6.2-8.4,0.7l-6.9-11.7v0l-1.3-2.3c-0.2,0.2-0.5,0.4-0.7,0.5c-5.7,4.5-9.8,10.2-11.8,15.4  L188.7,63.7z"></path></g><g>	<text transform="matrix(1 0 0 1 -389.1852 67.3557)" class="st7" style="font-family:'Quango'; font-size:80.6041px;">Task</text></g><g>	<text transform="matrix(1 0 0 1 -142.972 67.3557)" class="st7" style="font-family:'Quango'; font-size:80.6041px;">are</text></g><g>	<path class="st7" d="M-160.3,14.5c4.5,2.6,6,8.4,3.3,12.9l-21.4,36.3c-2.6,4.5-8.4,6-12.9,3.3l0,0c-4.5-2.6-6-8.4-3.3-12.9  l21.4-36.3C-170.6,13.3-164.8,11.9-160.3,14.5L-160.3,14.5z"></path>	<g>		<g>							<linearGradient id="SVGID_7_" gradientUnits="userSpaceOnUse" x1="-407.2084" y1="-148.5099" x2="-345.7069" y2="-148.5099" gradientTransform="matrix(-1 0 0 -1 -559.1407 -101.6194)">				<stop offset="0" style="stop-color:#4C8262"></stop>				<stop offset="1.438489e-02" style="stop-color:#4F8665"></stop>				<stop offset="0.1383" style="stop-color:#64A37E"></stop>				<stop offset="0.2615" style="stop-color:#73B78F"></stop>				<stop offset="0.3829" style="stop-color:#7CC499"></stop>				<stop offset="0.5" style="stop-color:#7FC89D"></stop>				<stop offset="0.6171" style="stop-color:#7CC499"></stop>				<stop offset="0.7385" style="stop-color:#73B78F"></stop>				<stop offset="0.8617" style="stop-color:#64A37E"></stop>				<stop offset="0.9856" style="stop-color:#4F8665"></stop>				<stop offset="1" style="stop-color:#4C8262"></stop>			</linearGradient>			<path class="st8" d="M-210.2,69c6,7.4,18.8,7.6,31.4,1.2c-10,4.3-19.6,3.8-24.2-2c-6.3-7.9-0.8-22.8,12.2-33.3    c13.1-10.5,28.8-12.6,35.1-4.7c2.9,3.6,3.3,8.8,1.6,14.2c3-7.5,2.9-14.8-1.1-19.7c-7.5-9.4-26-7.1-41.2,5    C-211.5,42.1-217.8,59.6-210.2,69z"></path>							<linearGradient id="SVGID_8_" gradientUnits="userSpaceOnUse" x1="-353.1261" y1="-189.9171" x2="-365.4287" y2="-191.2787" gradientTransform="matrix(0.1276 -0.9918 -1.1532 -0.1484 -326.0881 -342.3756)">				<stop offset="0" style="stop-color:#4C8262"></stop>				<stop offset="1.438489e-02" style="stop-color:#4F8665"></stop>				<stop offset="0.1383" style="stop-color:#64A37E"></stop>				<stop offset="0.2615" style="stop-color:#73B78F"></stop>				<stop offset="0.3829" style="stop-color:#7CC499"></stop>				<stop offset="0.5" style="stop-color:#7FC89D"></stop>				<stop offset="0.6171" style="stop-color:#7CC499"></stop>				<stop offset="0.7385" style="stop-color:#73B78F"></stop>				<stop offset="0.8617" style="stop-color:#64A37E"></stop>				<stop offset="0.9856" style="stop-color:#4F8665"></stop>				<stop offset="1" style="stop-color:#4C8262"></stop>			</linearGradient>			<path class="st9" d="M-155.5,48.3c0,0,5.3-6.2,6.7-12.2c0,0-1.5,2.3-3.7,3.3C-152.5,39.5-154.7,47.1-155.5,48.3z"></path>		</g>		<g>			<linearGradient id="SVGID_9_" gradientUnits="userSpaceOnUse" x1="-213.4338" y1="46.8905" x2="-148.779" y2="46.8905">				<stop offset="0" style="stop-color:#0F4C27"></stop>				<stop offset="1" style="stop-color:#19A152"></stop>			</linearGradient>			<path class="st10" d="M-210.2,69c6,7.4,18.8,7.6,31.4,1.2c-10,4.3-19.6,3.8-24.2-2c-6.3-7.9-0.8-22.8,12.2-33.3    c13.1-10.5,28.8-12.6,35.1-4.7c2.9,3.6,3.3,8.8,1.6,14.2c3-7.5,2.9-14.8-1.1-19.7c-7.5-9.4-26-7.1-41.2,5    C-211.5,42.1-217.8,59.6-210.2,69z"></path>			<linearGradient id="SVGID_10_" gradientUnits="userSpaceOnUse" x1="-213.4338" y1="46.8905" x2="-148.779" y2="46.8905">				<stop offset="0" style="stop-color:#0F4C27"></stop>				<stop offset="1" style="stop-color:#19A152"></stop>			</linearGradient>			<path class="st11" d="M-155.5,48.3c0,0,5.3-6.2,6.7-12.2c0,0-1.5,2.3-3.7,3.3C-152.5,39.5-154.7,47.1-155.5,48.3z"></path>		</g>	</g>			<linearGradient id="SVGID_11_" gradientUnits="userSpaceOnUse" x1="-359.8675" y1="-143.5502" x2="-337.718" y2="-91.4926" gradientTransform="matrix(-1 0 0 -1 -559.1407 -101.6194)">		<stop offset="0" style="stop-color:#0F4C27"></stop>		<stop offset="1" style="stop-color:#19A152"></stop>	</linearGradient>	<path class="st12" d="M-209.8,38.2c2.9-4,6.5-7.7,10.6-11c1.1-0.9,2.2-1.7,3.4-2.5l-4-6.9c-2.6-4.5-8.4-6-12.9-3.3  c-4.5,2.6-6,8.4-3.3,12.9L-209.8,38.2z"></path>			<linearGradient id="SVGID_12_" gradientUnits="userSpaceOnUse" x1="-387.9302" y1="-154.867" x2="-349.0569" y2="-154.867" gradientTransform="matrix(-1 0 0 -1 -559.1407 -101.6194)">		<stop offset="0" style="stop-color:#0F4C27"></stop>		<stop offset="1" style="stop-color:#19A152"></stop>	</linearGradient>	<path class="st13" d="M-194.6,63.7C-194.6,63.7-194.6,63.7-194.6,63.7c0.8,1.4,1.9,2.5,3.3,3.4c4.5,2.6,10.3,1.2,12.9-3.3l0.3-0.4  c0,0,0,0,0,0l6.9-11.8c-0.8,1.2-4.7,6.2-8.4,0.7l-6.9-11.7v0l-1.3-2.3c-0.2,0.2-0.5,0.4-0.7,0.5c-5.7,4.5-9.8,10.2-11.8,15.4  L-194.6,63.7z"></path></g><g class="st14">			<text transform="matrix(1 0 0 1 -344.8006 33.9276)" style="display:inline;fill:#3D3D6B; font-family:'Montserrat-Bold'; font-size:14.7795px; letter-spacing:2;">Lorem Ipsum</text>			<text transform="matrix(1 0 0 1 -318.7332 45.4544)" style="display:inline;fill:#F9AC0A; font-family:'Montserrat-Medium'; font-size:7.2596px; letter-spacing:8;">designs</text></g></svg>